<?xml version="1.0" encoding="utf-8"?>
<!-- Generator: Adobe Illustrator 18.0.0, SVG Export Plug-In . SVG Version: 6.00 Build 0)  -->
<!DOCTYPE svg PUBLIC "-//W3C//DTD SVG 1.1//EN" "http://www.w3.org/Graphics/SVG/1.1/DTD/svg11.dtd">


<svg version="1.1" id="Layer_1" xmlns="http://www.w3.org/2000/svg" xmlns:xlink="http://www.w3.org/1999/xlink" x="0px" y="0px"
	 viewBox="0 0 2207.5 827.9" enable-background="new 0 0 2207.5 827.9" xml:space="preserve">
	<style>
		@font-face {
		font-family: NexaLight;
		src: url("font/NexaLight.otf") format("opentype");
		}

	</style>
	<g>
		<text transform="matrix(1 0 0 1 431.7729 503.5752)"><tspan x="0" y="0" font-family="'NexaLight'" font-size="300.2087" fill="#FFFFFF">Hack</tspan><tspan x="678.5" y="0" fill="#EF5451" font-family="'NexaLight'" font-size="300.2087">Start</tspan></text>
	</g>

	<g>
	<path fill="#FFFFFF" d="M1141.1,595.5v81.4c0.1,14.2-3.3,25.3-19.8,25.3c-5.1,0-8.8-1.2-13.3-3.6l2.1-6.3c3.5,2,7.4,3,11.2,3
		c11.4,0,12.6-8.4,12.6-18.4v-81.4H1141.1z M1131.5,570.7c0,7.8,11.8,7.8,11.8,0S1131.5,562.9,1131.5,570.7z"/>
	<path fill="#FFFFFF" d="M1220.8,669.7v-13.3c-5.7,10.2-16,14.4-26.4,14.5c-19.8,0-33.4-12.1-33.4-32.7v-42.7h7.3v42.6
		c0,16.8,10.3,25.8,26.4,25.6c15.3-0.1,25.9-11.7,25.9-27v-41.2h7.3v74.2H1220.8z"/>
	<path fill="#FFFFFF" d="M1357.1,669.7v-44.4c0-14.2-9.6-24.3-23.7-24.3s-23.8,10.5-23.8,24.7v43.9h-7.3v-43.9
		c0-14.2-9.7-24.6-23.8-24.6c-14.1,0-23.7,10.3-23.7,24.6v43.9h-7.4v-74.1h6.9l0.1,12.3c5.1-9.7,14.5-13.8,24.1-13.8
		c11.2,0,23.1,5.1,27.4,18.3c4.5-12.1,16-18.3,27.4-18.3c18.1,0,31,12.7,31,31.2v44.4H1357.1z"/>
	<path fill="#FFFFFF" d="M1383.7,700.6v-105h7.2v17.5c5.9-11.2,17.7-18.6,32.1-18.6c20.1,0.8,36,14.2,36,38.1
		c0,24.9-16.8,38.4-37.6,38.4c-12.6,0-24.3-6.1-30.6-18.4v48H1383.7z M1451.6,632.7c0-20.8-13.5-31-30.3-31c-17.2,0-30,13-30,31.2
		s13,31.2,30,31.2C1438.1,664,1451.6,653.5,1451.6,632.7z"/>
	<path fill="#FFFFFF" d="M1569.1,609.1c-7.5-6.6-14.8-7.8-23.1-7.8c-11.5-0.1-22.6,4.2-22.3,13.6c0.3,9.9,13.2,11.8,22.5,13.5
		c13.2,2.3,31.3,4.5,30.6,21.7c-0.4,16.3-17.4,20.7-30.4,20.7c-13,0-25.9-5-32.4-14.8l5.4-4.8c6.1,8.8,17.2,12.6,27.1,12.6
		c9,0,22.6-2.4,23.1-14.1c0.3-10.6-12-12.7-24.1-14.7c-14.4-2.4-28.6-5.1-28.8-19.9c-0.1-14.5,14.4-20.8,29.4-20.7
		c10.8,0,20.2,3,27.6,9.9L1569.1,609.1z"/>
	<path fill="#FFFFFF" d="M1610,573.3v22.3h25.2v6.1H1610v45.1c0,10,2.1,17.1,13.6,17.1c3.6,0,7.6-1.2,11.4-3l2.5,6
		c-4.7,2.2-9.3,3.7-13.9,3.7c-15.8,0-20.8-9.3-20.8-23.8v-45.1h-15.7v-6.1h15.7V574L1610,573.3z"/>
	<path fill="#FFFFFF" d="M1723.4,595.6c0,24.7,0,49.3,0,74.1h-7.3v-15.7c-7.2,11.5-18.3,16.9-30.3,16.9c-20.7,0-37.6-15.6-37.6-38.2
		c0-22.6,16.9-37.9,37.6-37.9c12,0,24.1,5.5,30.3,17.1v-16.2H1723.4z M1655.5,632.7c0,18.6,13.5,31,30.3,31c41.2,0,41.2-61.9,0-61.9
		C1669,601.8,1655.5,614.1,1655.5,632.7z"/>
	<path fill="#FFFFFF" d="M1750.3,595.6l0.3,13.2c4.7-10,15.1-13.9,24.6-13.9c5.5-0.1,10.9,1.4,15.9,4.4l-3.3,6
		c-3.9-2.4-8.2-3.4-12.6-3.4c-13.8,0.1-24.4,11.2-24.4,24.7v43.2h-7.3v-74.1H1750.3z"/>
	<path fill="#FFFFFF" d="M1823.8,573.3v22.3h25.2v6.1h-25.2v45.1c0,10,2.1,17.1,13.6,17.1c3.6,0,7.6-1.2,11.4-3l2.5,6
		c-4.6,2.2-9.3,3.7-13.9,3.7c-15.8,0-20.8-9.3-20.8-23.8v-45.1h-15.7v-6.1h15.7V574L1823.8,573.3z"/>
	<path fill="#FFFFFF" d="M1970.5,595.6l-45.1,105h-7.8l13.6-31.8l-29.7-73.2h8l17.2,43.8l8.7,21.4l8.5-21.6l18.6-43.6H1970.5z"/>
	<path fill="#FFFFFF" d="M1981.3,632.8c0-23.5,16.8-38.5,37.6-38.5c20.8,0,37.6,15,37.6,38.5c0,23.5-16.8,37.9-37.6,37.9
		C1998.1,670.7,1981.3,656.3,1981.3,632.8z M2049.4,632.8c0-19.2-13.6-31.6-30.4-31.6c-16.8,0-30.4,12.4-30.4,31.6
		s13.6,30.7,30.4,30.7C2035.7,663.5,2049.4,652,2049.4,632.8z"/>
	<path fill="#FFFFFF" d="M2133.2,669.7v-13.3c-5.7,10.2-16,14.4-26.4,14.5c-19.8,0-33.4-12.1-33.4-32.7v-42.7h7.3v42.6
		c0,16.8,10.3,25.8,26.4,25.6c15.3-0.1,25.9-11.7,25.9-27v-41.2h7.3v74.2H2133.2z"/>
	<path fill="#FFFFFF" d="M2166.7,595.6l0.3,13.2c4.7-10,15.1-13.9,24.6-13.9c5.5-0.1,10.9,1.4,15.9,4.4l-3.3,6
		c-3.9-2.4-8.2-3.4-12.6-3.4c-13.8,0.1-24.4,11.2-24.4,24.7v43.2h-7.3v-74.1H2166.7z"/>
	<path fill="#FFFFFF" d="M1183.3,736.4c-7.5-6.6-14.8-7.8-23.1-7.8c-11.5-0.1-22.6,4.2-22.3,13.6c0.3,9.9,13.2,11.8,22.5,13.5
		c13.2,2.3,31.3,4.5,30.6,21.7c-0.4,16.3-17.4,20.7-30.4,20.7c-13,0-25.9-5-32.4-14.8l5.4-4.8c6.1,8.8,17.2,12.6,27.1,12.6
		c9,0,22.6-2.4,23.1-14.1c0.3-10.6-12-12.7-24.1-14.7c-14.4-2.4-28.6-5.1-28.8-19.9c-0.1-14.5,14.4-20.8,29.4-20.7
		c10.8,0,20.2,3,27.6,9.9L1183.3,736.4z"/>
	<path fill="#FFFFFF" d="M1224.2,700.6v22.3h25.2v6.1h-25.2v45.1c0,10,2.1,17.1,13.6,17.1c3.6,0,7.6-1.2,11.4-3l2.5,6
		c-4.6,2.2-9.3,3.7-13.9,3.7c-15.7,0-20.8-9.3-20.8-23.8v-45.1h-15.7v-6.1h15.7v-21.6L1224.2,700.6z"/>
	<path fill="#FFFFFF" d="M1337.6,722.9c0,24.7,0,49.3,0,74.1h-7.3v-15.7c-7.2,11.5-18.3,16.9-30.3,16.9c-20.7,0-37.6-15.6-37.6-38.2
		c0-22.6,16.9-37.9,37.6-37.9c12,0,24.1,5.5,30.3,17.1v-16.2H1337.6z M1269.7,760c0,18.6,13.5,31,30.3,31c41.2,0,41.2-61.9,0-61.9
		C1283.2,729.1,1269.7,741.4,1269.7,760z"/>
	<path fill="#FFFFFF" d="M1364.5,722.9l0.3,13.2c4.6-10,15.1-13.9,24.6-13.9c5.5-0.1,10.9,1.4,15.9,4.4l-3.3,6
		c-3.9-2.4-8.2-3.4-12.6-3.4c-13.8,0.1-24.4,11.2-24.4,24.7V797h-7.4v-74.1H1364.5z"/>
	<path fill="#FFFFFF" d="M1438,700.6v22.3h25.2v6.1H1438v45.1c0,10,2.1,17.1,13.6,17.1c3.6,0,7.6-1.2,11.4-3l2.5,6
		c-4.6,2.2-9.3,3.7-13.9,3.7c-15.7,0-20.8-9.3-20.8-23.8v-45.1H1415v-6.1h15.7v-21.6L1438,700.6z"/>
	<path fill="#FFFFFF" d="M1539.8,797v-13.3c-5.7,10.2-16,14.4-26.4,14.5c-19.8,0-33.4-12.1-33.4-32.7v-42.7h7.3v42.6
		c0,16.8,10.3,25.8,26.4,25.6c15.3-0.1,25.9-11.7,25.9-27v-41.2h7.3V797H1539.8z"/>
	<path fill="#FFFFFF" d="M1566.4,827.9v-105h7.2v17.5c5.9-11.2,17.7-18.6,32.1-18.6c20.1,0.8,36,14.2,36,38.1
		c0,24.9-16.8,38.4-37.6,38.4c-12.6,0-24.3-6.1-30.6-18.4v48H1566.4z M1634.3,760c0-20.8-13.5-31-30.3-31c-17.2,0-30,13-30,31.2
		s13,31.2,30,31.2C1620.8,791.3,1634.3,780.8,1634.3,760z"/>
	<path fill="#FFFFFF" d="M1761.7,786.7c-7.5,7.5-17.2,11.1-27,11.1c-20.8,0-38.1-14.4-38.1-37.8c0-23.4,16.6-37.8,38.1-37.8
		c9.8,0,19.5,3.8,27,11.1l-4.8,4.6c-6-6-14.2-8.8-22.2-8.8c-16.8,0-30.9,10.9-30.9,30.9s14.1,30.9,30.9,30.9c8,0,16-3.1,22-9.1
		L1761.7,786.7z"/>
	<path fill="#FFFFFF" d="M1847.9,722.9c0,24.7,0,49.3,0,74.1h-7.3v-15.7c-7.2,11.5-18.3,16.9-30.3,16.9c-20.7,0-37.6-15.6-37.6-38.2
		c0-22.6,16.9-37.9,37.6-37.9c12,0,24.1,5.5,30.3,17.1v-16.2H1847.9z M1780,760c0,18.6,13.5,31,30.3,31c41.2,0,41.2-61.9,0-61.9
		C1793.5,729.1,1780,741.4,1780,760z"/>
	<path fill="#FFFFFF" d="M1874.8,722.9l0.3,13.2c4.7-10,15.1-13.9,24.6-13.9c5.5-0.1,10.9,1.4,15.9,4.4l-3.3,6
		c-3.9-2.4-8.2-3.4-12.6-3.4c-13.8,0.1-24.4,11.2-24.4,24.7V797h-7.3v-74.1H1874.8z"/>
	<path fill="#FFFFFF" d="M1922.5,760c0-22.2,16.8-38.2,37.6-38.2c20.8,0,39.4,12.7,36.6,41.7H1930c1.5,17.4,14.8,27.4,30.1,27.4
		c9.8,0,21.1-3.9,26.7-11.2l5.3,4.2c-7.2,9.4-20.1,14.2-31.9,14.2C1939.3,798.1,1922.5,783.5,1922.5,760z M1990.1,757
		c-0.2-18.3-12.1-28.5-30-28.5c-15.3,0-28.5,10.3-30.1,28.5H1990.1z"/>
	<path fill="#FFFFFF" d="M2011.6,760c0-22.2,16.8-38.2,37.6-38.2c20.8,0,39.4,12.7,36.6,41.7h-66.7c1.5,17.4,14.8,27.4,30.1,27.4
		c9.8,0,21.1-3.9,26.7-11.2l5.3,4.2c-7.2,9.4-20.1,14.2-31.9,14.2C2028.4,798.1,2011.6,783.5,2011.6,760z M2079.2,757
		c-0.2-18.3-12.1-28.5-30-28.5c-15.3,0-28.5,10.3-30.1,28.5H2079.2z"/>
	<path fill="#FFFFFF" d="M2111.8,722.9l0.3,13.2c4.7-10,15.1-13.9,24.6-13.9c5.5-0.1,10.9,1.4,15.9,4.4l-3.3,6
		c-3.9-2.4-8.2-3.4-12.6-3.4c-13.8,0.1-24.4,11.2-24.4,24.7V797h-7.3v-74.1H2111.8z"/>
</g>

	<g>
		<g>
			<path fill="#EF5451" d="M633,756.6C457.8,732.2,323,581.9,323,400c0-198.8,161.2-360,360-360c153.2,0,284,95.7,336,230.5h42.6
									C1007.8,113.1,858.6,0,683,0C462.1,0,283,179.1,283,400c0,204,152.7,372.3,350,396.9V756.6z"/>
			<path fill="#EF5451" d="M1019,529.5c-46.2,119.9-154.8,208.8-286,227.1v40.3c153.5-19.1,279.9-125.2,328.6-267.4H1019z"/>
		</g>
	</g>
</svg>
