<?xml version="1.0" encoding="utf-8"?>
<!-- Generator: Adobe Illustrator 18.0.0, SVG Export Plug-In . SVG Version: 6.00 Build 0)  -->
<!DOCTYPE svg PUBLIC "-//W3C//DTD SVG 1.1//EN" "http://www.w3.org/Graphics/SVG/1.1/DTD/svg11.dtd">
<svg version="1.1" id="Layer_1" xmlns="http://www.w3.org/2000/svg" xmlns:xlink="http://www.w3.org/1999/xlink" x="0px" y="0px"
	 viewBox="0 0 818.2 930" enable-background="new 0 0 818.2 930" xml:space="preserve">
<g>
	<polygon points="27.4,682.4 27.4,241.6 409.1,21.2 790.8,241.6 790.8,682.4 409.1,902.8 	"/>
	<g>
		<path fill="#BE1E2D" d="M47.4,682.4c0-32.1,0-64.3,0-96.4c0-64,0-127.9,0-191.9c0-47.2,0-94.4,0-141.6c0-3.6,0-7.2,0-10.9
			c-3.3,5.8-6.6,11.5-9.9,17.3c27.8-16.1,55.6-32.1,83.5-48.2c55.4-32,110.8-64,166.2-96c40.9-23.6,81.8-47.2,122.6-70.8
			c3.1-1.8,6.3-3.6,9.4-5.4c-6.7,0-13.5,0-20.2,0c27.8,16.1,55.6,32.1,83.5,48.2c55.4,32,110.8,64,166.2,96
			c40.9,23.6,81.8,47.2,122.6,70.8c3.1,1.8,6.3,3.6,9.4,5.4c-3.3-5.8-6.6-11.5-9.9-17.3c0,32.1,0,64.3,0,96.4c0,64,0,127.9,0,191.9
			c0,47.2,0,94.4,0,141.6c0,3.6,0,7.2,0,10.9c3.3-5.8,6.6-11.5,9.9-17.3c-27.8,16.1-55.6,32.1-83.5,48.2c-55.4,32-110.8,64-166.2,96
			c-40.9,23.6-81.8,47.2-122.6,70.8c-3.1,1.8-6.3,3.6-9.4,5.4c6.7,0,13.5,0,20.2,0c-27.8-16.1-55.6-32.1-83.5-48.2
			c-55.4-32-110.8-64-166.2-96c-40.9-23.6-81.8-47.2-122.6-70.8c-3.1-1.8-6.3-3.6-9.4-5.4c-9.4-5.5-21.8-2.3-27.4,7.2
			c-5.5,9.4-2.3,21.9,7.2,27.4c27.8,16.1,55.6,32.1,83.5,48.2c55.4,32,110.8,64,166.2,96c40.9,23.6,81.8,47.2,122.6,70.8
			c3,1.7,6,3.5,9,5.2c8.1,4.7,16.2,2.8,23.5-1.5c12.6-7.3,25.1-14.5,37.7-21.8c51-29.4,101.9-58.8,152.9-88.3
			c50.3-29.1,100.7-58.1,151-87.2c12.4-7.2,24.9-14.4,37.3-21.5c6.1-3.5,9.9-10.3,9.9-17.3c0-32.1,0-64.3,0-96.4
			c0-64,0-127.9,0-191.9c0-47.2,0-94.4,0-141.6c0-3.6,0-7.2,0-10.9c0-7-3.8-13.8-9.9-17.3c-27.8-16.1-55.6-32.1-83.5-48.2
			c-55.4-32-110.8-64-166.2-96C510.4,56.6,469.5,33,428.6,9.4c-3-1.7-6-3.5-9-5.2c-8.1-4.7-16.2-2.8-23.5,1.5
			c-12.6,7.3-25.1,14.5-37.7,21.8c-51,29.4-101.9,58.8-152.9,88.3c-50.3,29.1-100.7,58.1-151,87.2c-12.4,7.2-24.9,14.4-37.3,21.5
			c-6.1,3.5-9.9,10.3-9.9,17.3c0,32.1,0,64.3,0,96.4c0,64,0,127.9,0,191.9c0,47.2,0,94.4,0,141.6c0,3.6,0,7.2,0,10.9
			c0,10.9,9.1,20,20,20S47.4,693.3,47.4,682.4z"/>
	</g>
</g>
<g>
	<path fill="#A97C50" d="M257.6,397.2"/>
	<g>
		
			<rect x="149.3" y="248.9" transform="matrix(0.9994 -3.489950e-002 3.489950e-002 0.9994 -9.5303 5.7403)" fill="#FBB040" width="20.8" height="53.9"/>
		<g>
			
				<rect x="128.1" y="234.5" transform="matrix(0.9994 -3.489950e-002 3.489950e-002 0.9994 -9.1634 4.9958)" fill="#FBB040" width="20.8" height="61"/>
			
				<rect x="106.9" y="219.9" transform="matrix(0.9994 -3.489950e-002 3.489950e-002 0.9994 -8.6669 4.2446)" fill="#FBB040" width="20.8" height="61"/>
			
				<rect x="64.3" y="190.9" transform="matrix(0.9994 -3.489950e-002 3.489950e-002 0.9994 -7.6824 2.7424)" fill="#FBB040" width="20.8" height="61"/>
			
				<rect x="85.6" y="205.4" transform="matrix(0.9994 -3.489950e-002 3.489950e-002 0.9994 -8.1732 3.4934)" fill="#FBB040" width="20.8" height="61"/>
			
				<rect x="43.1" y="176.3" transform="matrix(0.9994 -3.489950e-002 3.489950e-002 0.9994 -7.1859 1.9911)" fill="#FBB040" width="20.8" height="61"/>
			
				<rect x="21.8" y="161.7" transform="matrix(0.9994 -3.489950e-002 3.489950e-002 0.9994 -6.6893 1.2398)" fill="#FBB040" width="20.8" height="61"/>
			
				<rect x="0.8" y="162.5" transform="matrix(0.9994 -3.489950e-002 3.489950e-002 0.9994 -6.505 0.5049)" fill="#FBB040" width="20.8" height="48.2"/>
			
				<rect x="11.1" y="184.3" transform="matrix(0.9781 0.2079 -0.2079 0.9781 46.5912 0.8622)" fill="#FBB040" width="16.3" height="75.5"/>
			
				<rect x="13.9" y="249.9" transform="matrix(0.8572 -0.515 0.515 0.8572 -137.2201 50.2797)" fill="#FBB040" width="16.3" height="45.3"/>
			
				<rect x="48.4" y="272.9" transform="matrix(0.454 -0.891 0.891 0.454 -238.4164 215.3906)" fill="#FBB040" width="16.3" height="58.6"/>
			
				<rect x="100.7" y="284" transform="matrix(-1.745235e-002 -0.9998 0.9998 -1.745235e-002 -203.3013 428.438)" fill="#FBB040" width="16.3" height="60.1"/>
			<path fill="#FBB040" d="M139,322l45.7-58.4c4.5-5.8,3.5-14.2-2.3-18.7l0,0c-5.8-4.5-14.2-3.5-18.7,2.3L118,305.6L139,322z"/>
		</g>
		<path fill="#D1D3D4" d="M805.5,594.1C564,525.7,264,336.6,264,336.6s-78.4-54.1-88.5-70.5c-4.8-6.5-39.7,33.3-25,42
			C453.3,531.3,677.5,635.5,805.5,594.1z"/>
	</g>
	<g>
		<g>
			
				<rect x="669.3" y="235.2" transform="matrix(-0.9994 -3.489945e-002 3.489945e-002 -0.9994 1349.6241 554.9747)" fill="#FBB040" width="20.8" height="61"/>
			
				<rect x="648.1" y="249.6" transform="matrix(-0.9994 -3.489945e-002 3.489945e-002 -0.9994 1306.8026 579.2283)" fill="#FBB040" width="20.8" height="57.1"/>
			
				<rect x="690.6" y="220.6" transform="matrix(-0.9994 -3.489945e-002 3.489945e-002 -0.9994 1392.6655 526.5263)" fill="#FBB040" width="20.8" height="61"/>
			
				<rect x="733.1" y="191.7" transform="matrix(-0.9994 -3.489945e-002 3.489945e-002 -0.9994 1478.7225 470.1288)" fill="#FBB040" width="20.8" height="61"/>
			
				<rect x="711.8" y="206.1" transform="matrix(-0.9994 -3.489945e-002 3.489945e-002 -0.9994 1435.6986 498.2445)" fill="#FBB040" width="20.8" height="61"/>
			
				<rect x="754.4" y="177.1" transform="matrix(-0.9994 -3.489945e-002 3.489945e-002 -0.9994 1521.764 441.6804)" fill="#FBB040" width="20.8" height="61"/>
			
				<rect x="775.6" y="162.5" transform="matrix(-0.9994 -3.489945e-002 3.489945e-002 -0.9994 1564.8058 413.2322)" fill="#FBB040" width="20.8" height="61"/>
			
				<rect x="796.6" y="163.2" transform="matrix(-0.9994 -3.489945e-002 3.489945e-002 -0.9994 1606.9098 402.6712)" fill="#FBB040" width="20.8" height="48.2"/>
			
				<rect x="790.9" y="185" transform="matrix(-0.9781 0.2079 -0.2079 -0.9781 1626.8345 274.6093)" fill="#FBB040" width="16.3" height="75.5"/>
			
				<rect x="788" y="250.6" transform="matrix(-0.8572 -0.515 0.515 -0.8572 1337.8212 917.5382)" fill="#FBB040" width="16.3" height="45.3"/>
			
				<rect x="753.5" y="273.7" transform="matrix(-0.454 -0.891 0.891 -0.454 837.495 1119.1167)" fill="#FBB040" width="16.3" height="58.6"/>
			
				<rect x="701.2" y="284.8" transform="matrix(1.745238e-002 -0.9998 0.9998 1.745238e-002 382.1518 1018.5504)" fill="#FBB040" width="16.3" height="60.1"/>
			<path fill="#FBB040" d="M679.2,322.7l-45.7-58.4c-4.5-5.8-3.5-14.2,2.3-18.7v0c5.8-4.5,14.2-3.5,18.7,2.3l45.7,58.4L679.2,322.7z
				"/>
		</g>
		<path fill="#D1D3D4" d="M12.7,594.8c241.4-68.4,541.5-257.5,541.5-257.5s78.4-54.1,88.5-70.5c4.8-6.5,39.7,33.3,25,42
			C364.8,532,140.7,636.2,12.7,594.8z"/>
	</g>
	<ellipse fill="#BE1E2D" cx="415.5" cy="365.8" rx="184.7" ry="189.4"/>
	<path fill="#BE1E2D" d="M231.3,365.8c0,0-5,97.3-13,120c-8,22.7-28.7,72.7-20.7,133.3c8,60.7,8,60.7,8,60.7s19.3-19.3,21.3-25.3
		s10-32.9,10-51.4c0-18.6,0-18.6,0-18.6s-1.3,38,0,49.3c1.3,11.3,13.3,28,13.3,28s5.7-8,7.5-28.7c1.8-20.7,5.8-42,7.8-56.7
		S231.3,365.8,231.3,365.8z"/>
	<path fill="#FFF200" stroke="#000000" stroke-width="3" stroke-miterlimit="10" d="M426.5,371.7"/>
	<path fill="#6D6E71" d="M604.8,442.7c0.7-12.3,8.7-22.3,9-34.7c0.3-12.3-6.7-18.3-15.7-17.7s-9,6.8-9,6.8
		c-6-5.5-107.7-43.8-118-43.8s-52.7,0-52.7,0s-42.3,0-52.7,0c-10.3,0-112,38.3-118,43.8c0,0,0-6.2-9-6.8s-16,5.3-15.7,17.7
		c0.3,12.3,8.3,22.3,9,34.7c0.7,12.3-7.3,49.7,5,54.7s7.9,3.4,7.9,3.4s-3.4,30.2,5.4,38.1c8.8,7.8,16.2,14.5,14.8,39.2
		c-1.3,24.7-1.3,37.2,0.5,42.8c1.8,5.7,44.2,40.9,51.7,52.5c7.3,11.3,25.7,51.2,33.5,55.7c7.8,4.5,35.3,5.2,44.5,5.3
		c9.2,0.2,23,0,23,0s13.8,0.2,23,0c9.2-0.2,36.7-0.8,44.5-5.3c7.8-4.5,15.5-23.4,34-44.7c9.1-10.4,49.3-57.8,51.2-63.5
		s-1.3-19.4,4.2-43.5c5.4-23.4,7.8-26.2,13-38.3c4.6-10.9,3.6-38.2,3.6-38.2s-4.4,1.6,7.9-3.4C612.1,492.4,604.1,455.1,604.8,442.7z
		"/>
	<path fill="#808285" d="M415.5,532v-37l-2.5-65l-23.4-23.5l-0.8-30.1l13.7-19.3l-5-3.7c-12.2,0-26.3,0-31.7,0
		c-10.3,0-112,38.3-118,43.8c0,0,0-6.2-9-6.8s-16,5.3-15.7,17.7c0.3,12.3,8.3,22.3,9,34.7c0.7,12.3-7.3,49.7,5,54.7s7.9,3.4,7.9,3.4
		s-1.6,28.2,2.5,39.3c3.8,10.5,12.2,13.6,15,38c2.8,24.5,1.4,37.1,3.3,42.8c1.8,5.7,46.5,55,54.2,66.5c11.3,17,23.2,37.2,31,41.7
		c7.8,4.5,35.3,5.2,44.5,5.3c2.5,0,5.4,0.1,8.3,0.1l14.7-36.7l0-22.4l0.3-10.5l-3.3-14.2l3.3-13.2l-3.3-63.8v-30.3l-19.8,0.5
		L415.5,532z"/>
	<polyline points="342,360.1 437.9,407.4 555.1,415.1 581.8,402.4 587.7,396.3 591,400.3 589.1,408.7 580.9,426.1 562.6,442.4 
		540.1,489.7 498.9,495.1 461.1,482.7 440.3,445.7 436.3,432.7 342,379.7 317.3,368.8 	"/>
</g>
</svg>
